<svg width="26" height="21" viewBox="0 0 26 21" fill="none" xmlns="http://www.w3.org/2000/svg">
<path fill-rule="evenodd" clip-rule="evenodd" d="M26 16.2273V4.77273C26 2.13818 23.92 0 21.3571 0H4.64286C2.08 0 0 2.13818 0 4.77273V16.2273C0 18.8618 2.08 21 4.64286 21H21.3571C23.92 21 26 18.8618 26 16.2273ZM24.1429 5.77505V16.2273C24.1429 17.8118 22.8986 19.0909 21.3571 19.0909H4.64286C3.10143 19.0909 1.85714 17.8118 1.85714 16.2273V5.77505L10.3907 11.741C11.9692 12.8387 14.0308 12.8387 15.6093 11.741L24.1429 5.77505ZM23.9107 3.62732C23.4836 2.6155 22.4993 1.90909 21.3571 1.90909H4.64286C3.50071 1.90909 2.51643 2.6155 2.08929 3.62732L11.4308 10.1564C12.3779 10.8246 13.6221 10.8246 14.5692 10.1564L23.9107 3.62732Z" fill="white"/>
</svg>
