<svg width="21" height="21" viewBox="0 0 21 21" fill="none" xmlns="http://www.w3.org/2000/svg">
<path fill-rule="evenodd" clip-rule="evenodd" d="M21 17.25C21 19.32 19.32 21 17.25 21H3.75C1.68 21 0 19.32 0 17.25V3.75C0 1.68 1.68 0 3.75 0H17.25C19.32 0 21 1.68 21 3.75V17.25ZM19.5 6V3.75C19.5 2.505 18.495 1.5 17.25 1.5H3.75C2.505 1.5 1.5 2.505 1.5 3.75V17.25C1.5 18.495 2.505 19.5 3.75 19.5H17.25C18.495 19.5 19.5 18.495 19.5 17.25V15H13.5C11.43 15 9.75 13.32 9.75 11.25V9.75C9.75 7.68 11.43 6 13.5 6H19.5ZM19.5 7.5H13.5C12.255 7.5 11.25 8.505 11.25 9.75V11.25C11.25 12.495 12.255 13.5 13.5 13.5H19.5V7.5Z" fill="white"/>
</svg>
